<svg width="48" height="48" viewBox="0 0 48 48" fill="none" xmlns="http://www.w3.org/2000/svg">
<path d="M4.5 40.5H31.5" stroke="#333333" stroke-width="2" stroke-linecap="round" stroke-linejoin="round"/>
<path d="M3.17379 26.3192L10.2417 32.9454C11.1834 33.8282 12.3847 34.3838 13.6672 34.5297C14.9497 34.6756 16.2451 34.404 17.3611 33.7552L45.75 17.25L42.2551 12.9785C41.3484 11.8703 40.0754 11.1229 38.6659 10.8713C37.2564 10.6197 35.8033 10.8804 34.5692 11.6063L26.25 16.5L15 12.75L11.9064 14.0758C11.675 14.175 11.4722 14.3308 11.3168 14.529C11.1615 14.7272 11.0585 14.9612 11.0174 15.2097C10.9763 15.4581 10.9984 15.7129 11.0817 15.9505C11.1649 16.1882 11.3067 16.401 11.4938 16.5695L17.25 21.75L12 24.75L6.74996 22.5L3.60883 23.8462C3.37976 23.9444 3.17876 24.0981 3.02399 24.2934C2.86922 24.4888 2.76557 24.7196 2.72239 24.965C2.67921 25.2105 2.69787 25.4628 2.77669 25.6993C2.8555 25.9357 2.99198 26.1488 3.17379 26.3192V26.3192Z" stroke="#333333" stroke-width="2" stroke-linecap="round" stroke-linejoin="round"/>
</svg>
