<svg width="76" height="43" viewBox="0 0 76 43" fill="none" xmlns="http://www.w3.org/2000/svg">
<circle cx="3.58333" cy="21.5" r="3.58333" fill="#BDBDBD"/>
<path d="M22.8438 21.5L20.1562 14.7813H25.5312L28.2188 17.4688H33.5938L30.9062 4.03125L36.2812 4.03125L43 17.4688L51.0625 17.4877C52.1317 17.4877 53.157 17.9124 53.913 18.6684C54.669 19.4244 55.0938 20.4498 55.0938 21.5189C55.0938 22.5881 54.669 23.6134 53.913 24.3694C53.157 25.1254 52.1317 25.5502 51.0625 25.5502L43 25.5691L36.2812 39.0066H30.9063L33.5938 25.5691H28.2188L25.5312 28.2188H20.1562L22.8438 21.5Z" stroke="#BDBDBD" stroke-width="2" stroke-linecap="round" stroke-linejoin="round"/>
<circle cx="71.6666" cy="21.5" r="3.58333" fill="#BDBDBD"/>
</svg>
