<svg viewBox="0 0 32 32" xmlns="http://www.w3.org/2000/svg">
<g id="AirplaneInFlight">
<g id="AirplaneInFlight_2">
<path id="Vector" d="M9 27H27" stroke-width="2" stroke-linecap="round" stroke-linejoin="round"/>
<path id="Vector_2" d="M3.34424 10H5.50021L8.00021 13H12.0002L10.439 8.31623C10.3888 8.16591 10.3752 8.00583 10.3991 7.84919C10.423 7.69255 10.4837 7.54383 10.5764 7.41529C10.669 7.28675 10.7909 7.18206 10.932 7.10986C11.073 7.03765 11.2292 7 11.3876 7H13.5002L19.0002 13H26.0002C27.0611 13 28.0785 13.4214 28.8286 14.1716C29.5788 14.9217 30.0002 15.9391 30.0002 17V20H7.97633C7.11609 20 6.27877 19.7227 5.58861 19.2092C4.89845 18.6957 4.39222 17.9734 4.14503 17.1494L2.38641 11.2873C2.34162 11.138 2.33235 10.9803 2.35936 10.8268C2.38636 10.6732 2.44889 10.5281 2.54195 10.4031C2.635 10.278 2.75601 10.1764 2.89531 10.1064C3.03461 10.0364 3.18835 10 3.34424 10Z"  stroke-width="2" stroke-linecap="round" stroke-linejoin="round"/>
</g>
</g>
</svg>
