<svg viewBox="0 0 24 24" fill="none" xmlns="http://www.w3.org/2000/svg">
    <g id="Copyright">
        <path id="Vector" d="M12 21C16.9706 21 21 16.9706 21 12C21 7.02944 16.9706 3 12 3C7.02944 3 3 7.02944 3 12C3 16.9706 7.02944 21 12 21Z" stroke-width="2" stroke-linecap="round" stroke-linejoin="round"/>
        <path id="Vector_2" d="M15.0001 14.2501C14.5278 14.8796 13.8694 15.3446 13.1182 15.5791C12.3669 15.8136 11.5609 15.8059 10.8144 15.557C10.0678 15.308 9.41843 14.8305 8.95829 14.192C8.49816 13.5536 8.25055 12.7865 8.25055 11.9995C8.25054 11.2125 8.49814 10.4455 8.95827 9.80702C9.41839 9.16855 10.0677 8.69103 10.8143 8.44208C11.5609 8.19313 12.3669 8.18537 13.1181 8.41991C13.8693 8.65445 14.5277 9.11939 15.0001 9.74888"  stroke-width="2" stroke-linecap="round" stroke-linejoin="round"/>
    </g>
</svg>
