<svg width="162" height="43" viewBox="0 0 162 43" fill="none" xmlns="http://www.w3.org/2000/svg">
<path d="M41.7681 12.5727C41.7681 12.5727 52.9796 17.9497 49.2343 29.6826C45.489 41.4155 26.1338 42.5666 22.2835 42.1059C18.4332 41.6453 -2.37692 38.1953 0.224225 22.5519C0.224225 22.5519 0.302677 16.8865 9.77091 11.4802C9.77091 11.4802 10.5514 11.193 8.62674 9.58232C8.62674 9.58232 8.18455 8.74884 10.5514 8.97861C10.5514 8.97861 13.4908 10.9632 19.9941 5.95895L10.6553 2.4223C10.6553 2.4223 10.1092 2.04837 11.2014 1.61699C12.2936 1.1856 12.8142 0.207959 20.3059 1.87604C20.3059 1.87604 25.014 2.82553 31.8821 0.265402C31.8821 0.265402 39.9464 -1.11547 35.8363 2.4223C35.8363 2.4223 30.9458 4.86642 18.9274 9.29511C18.9274 9.29511 6.85698 13.0334 5.06176 18.3248C3.26653 23.6163 3.83913 24.7662 6.67461 28.1598C6.67461 28.1598 9.92578 32.2146 21.6844 28.1598C21.6844 28.1598 27.8495 27.412 25.2219 33.1922C25.2219 33.1922 24.1246 35.205 27.0018 34.831C29.8781 34.4571 39.2434 31.9555 40.9082 24.5646C40.9082 24.5646 42.8328 19.8769 36.6158 13.8094C36.6168 13.8094 34.9785 9.84137 41.7681 12.5727Z" fill="#2F80ED"/>
<path d="M23.0119 8.51794L22.206 11.3934C22.206 11.3934 21.6854 12.4668 22.6747 12.156C23.663 11.844 24.9376 11.9115 27.4867 6.79242L23.0119 8.51794Z" fill="#2F80ED"/>
<path d="M65.7305 30.5938H62.1562V13.4609H71.9766V16.4375H65.7305V20.8555H71.543V23.8203H65.7305V30.5938ZM78.6211 30.5938H75.0469V12.3594H78.6211V30.5938ZM82.2305 14.1055C82.2305 12.9414 82.8789 12.3594 84.1758 12.3594C85.4727 12.3594 86.1211 12.9414 86.1211 14.1055C86.1211 14.6602 85.957 15.0938 85.6289 15.4062C85.3086 15.7109 84.8242 15.8633 84.1758 15.8633C82.8789 15.8633 82.2305 15.2773 82.2305 14.1055ZM85.957 30.5938H82.3828V17.4922H85.957V30.5938ZM95.1445 28.0273C96.1055 28.0273 96.793 27.7539 97.207 27.207C97.6211 26.6523 97.8281 25.7578 97.8281 24.5234V24.0898C97.8281 22.6914 97.6094 21.6875 97.1719 21.0781C96.7422 20.4609 96.0469 20.1523 95.0859 20.1523C93.4062 20.1523 92.5664 21.4727 92.5664 24.1133C92.5664 25.4258 92.7734 26.4062 93.1875 27.0547C93.6094 27.7031 94.2617 28.0273 95.1445 28.0273ZM101.168 30.6172C101.168 32.5 100.617 33.9258 99.5156 34.8945C98.4219 35.8711 96.7891 36.3594 94.6172 36.3594C92.7031 36.3594 91.0703 36.1016 89.7188 35.5859V32.7266C91.3047 33.3984 93.0078 33.7344 94.8281 33.7344C96.6641 33.7344 97.582 32.7422 97.582 30.7578V30.5L97.6875 28.8945H97.582C96.7461 30.1836 95.5078 30.8281 93.8672 30.8281C92.2969 30.8281 91.0781 30.2227 90.2109 29.0117C89.3516 27.8008 88.9219 26.1523 88.9219 24.0664C88.9219 21.918 89.3672 20.2461 90.2578 19.0508C91.1562 17.8477 92.3906 17.2461 93.9609 17.2461C95.5703 17.2461 96.8359 17.8867 97.7578 19.168H97.8516L98.1445 17.4922H101.168V30.6172ZM117 30.5938H113.426V22.9414C113.426 21.0508 112.723 20.1055 111.316 20.1055C110.316 20.1055 109.594 20.4453 109.148 21.125C108.703 21.8047 108.48 22.9062 108.48 24.4297V30.5938H104.906V12.3594H108.48V16.0742C108.48 16.3633 108.453 17.043 108.398 18.1133L108.316 19.168H108.504C109.301 17.8867 110.566 17.2461 112.301 17.2461C113.84 17.2461 115.008 17.6602 115.805 18.4883C116.602 19.3164 117 20.5039 117 22.0508V30.5938ZM126.199 27.9805C126.824 27.9805 127.574 27.8438 128.449 27.5703V30.2305C127.559 30.6289 126.465 30.8281 125.168 30.8281C123.738 30.8281 122.695 30.4688 122.039 29.75C121.391 29.0234 121.066 27.9375 121.066 26.4922V20.1758H119.355V18.6641L121.324 17.4688L122.355 14.7031H124.641V17.4922H128.309V20.1758H124.641V26.4922C124.641 27 124.781 27.375 125.062 27.6172C125.352 27.8594 125.73 27.9805 126.199 27.9805ZM139.43 30.5938L138.738 28.8125H138.645C138.043 29.5703 137.422 30.0977 136.781 30.3945C136.148 30.6836 135.32 30.8281 134.297 30.8281C133.039 30.8281 132.047 30.4688 131.32 29.75C130.602 29.0312 130.242 28.0078 130.242 26.6797C130.242 25.2891 130.727 24.2656 131.695 23.6094C132.672 22.9453 134.141 22.5781 136.102 22.5078L138.375 22.4375V21.8633C138.375 20.5352 137.695 19.8711 136.336 19.8711C135.289 19.8711 134.059 20.1875 132.645 20.8203L131.461 18.4062C132.969 17.6172 134.641 17.2227 136.477 17.2227C138.234 17.2227 139.582 17.6055 140.52 18.3711C141.457 19.1367 141.926 20.3008 141.926 21.8633V30.5938H139.43ZM138.375 24.5234L136.992 24.5703C135.953 24.6016 135.18 24.7891 134.672 25.1328C134.164 25.4766 133.91 26 133.91 26.7031C133.91 27.7109 134.488 28.2148 135.645 28.2148C136.473 28.2148 137.133 27.9766 137.625 27.5C138.125 27.0234 138.375 26.3906 138.375 25.6016V24.5234ZM151.137 27.9805C151.762 27.9805 152.512 27.8438 153.387 27.5703V30.2305C152.496 30.6289 151.402 30.8281 150.105 30.8281C148.676 30.8281 147.633 30.4688 146.977 29.75C146.328 29.0234 146.004 27.9375 146.004 26.4922V20.1758H144.293V18.6641L146.262 17.4688L147.293 14.7031H149.578V17.4922H153.246V20.1758H149.578V26.4922C149.578 27 149.719 27.375 150 27.6172C150.289 27.8594 150.668 27.9805 151.137 27.9805ZM155.895 14.1055C155.895 12.9414 156.543 12.3594 157.84 12.3594C159.137 12.3594 159.785 12.9414 159.785 14.1055C159.785 14.6602 159.621 15.0938 159.293 15.4062C158.973 15.7109 158.488 15.8633 157.84 15.8633C156.543 15.8633 155.895 15.2773 155.895 14.1055ZM159.621 30.5938H156.047V17.4922H159.621V30.5938Z" fill="#4F4F4F"/>
</svg>
