<svg viewBox="0 0 247 47" fill="none" xmlns="http://www.w3.org/2000/svg">
    <g id="Logo">
        <g id="icon">
            <path id="Vector" d="M46.5328 14.0069C46.5328 14.0069 59.0232 19.9973 54.8506 33.0686C50.6781 46.1399 29.1149 47.4223 24.8255 46.9091C20.536 46.3959 -2.64806 42.5524 0.249803 25.1245C0.249803 25.1245 0.337204 18.8128 10.8855 12.7898C10.8855 12.7898 11.755 12.4698 9.61082 10.6754C9.61082 10.6754 9.1182 9.74686 11.755 10.0028C11.755 10.0028 15.0297 12.2138 22.2749 6.63871L11.8708 2.69863C11.8708 2.69863 11.2624 2.28203 12.4792 1.80144C13.696 1.32085 14.276 0.231682 22.6223 2.09005C22.6223 2.09005 27.8675 3.14785 35.5191 0.295677C35.5191 0.295677 44.5032 -1.24271 39.9243 2.69863C39.9243 2.69863 34.4759 5.42155 21.0865 10.3554C21.0865 10.3554 7.63919 14.5201 5.63917 20.4152C3.63916 26.3103 4.27707 27.5914 7.43601 31.3721C7.43601 31.3721 11.0581 35.8894 24.158 31.3721C24.158 31.3721 31.0264 30.539 28.099 36.9786C28.099 36.9786 26.8766 39.2209 30.082 38.8043C33.2864 38.3877 43.72 35.6008 45.5748 27.3668C45.5748 27.3668 47.7189 22.1443 40.7927 15.3847C40.7938 15.3847 38.9686 10.964 46.5328 14.0069Z" fill="#2F80ED"/>
            <path id="Vector_2" d="M25.637 9.4895L24.7392 12.693C24.7392 12.693 24.1592 13.8888 25.2613 13.5425C26.3624 13.1949 27.7823 13.2702 30.6223 7.56714L25.637 9.4895Z" fill="#2F80ED"/>
        </g>
        <g id="text">
            <path d="M92.5245 8.57287V18.2285H104.752V23.079H92.5245V36.3668H86.4333V3.74503H107.008V8.57287H92.5245Z" fill="#4F4F4F"/>
            <path d="M116.397 2.84263V36.3668H110.825V2.84263H116.397Z" fill="#4F4F4F"/>
            <path d="M127.724 13.2202V36.3668H122.13V13.2202H127.724ZM128.492 6.47479C128.492 6.95607 128.394 7.40727 128.198 7.82839C128.003 8.24951 127.74 8.61799 127.409 8.93383C127.093 9.24967 126.717 9.50535 126.281 9.70087C125.844 9.88135 125.378 9.97159 124.882 9.97159C124.401 9.97159 123.942 9.88135 123.506 9.70087C123.085 9.50535 122.716 9.24967 122.4 8.93383C122.084 8.61799 121.829 8.24951 121.633 7.82839C121.453 7.40727 121.363 6.95607 121.363 6.47479C121.363 5.97847 121.453 5.51223 121.633 5.07607C121.829 4.63991 122.084 4.26391 122.4 3.94807C122.716 3.63223 123.085 3.38407 123.506 3.20359C123.942 3.00807 124.401 2.91031 124.882 2.91031C125.378 2.91031 125.844 3.00807 126.281 3.20359C126.717 3.38407 127.093 3.63223 127.409 3.94807C127.74 4.26391 128.003 4.63991 128.198 5.07607C128.394 5.51223 128.492 5.97847 128.492 6.47479Z" fill="#4F4F4F"/>
            <path d="M141.865 24.2295C142.557 24.2295 143.159 24.1393 143.67 23.9588C144.182 23.7633 144.603 23.5001 144.934 23.1692C145.279 22.8383 145.535 22.4398 145.701 21.9735C145.881 21.5073 145.971 20.9959 145.971 20.4394C145.971 19.2964 145.625 18.394 144.934 17.7322C144.257 17.0554 143.234 16.717 141.865 16.717C140.497 16.717 139.467 17.0554 138.775 17.7322C138.098 18.394 137.759 19.2964 137.759 20.4394C137.759 20.9809 137.842 21.4847 138.008 21.9509C138.188 22.4172 138.444 22.8233 138.775 23.1692C139.121 23.5001 139.549 23.7633 140.061 23.9588C140.587 24.1393 141.189 24.2295 141.865 24.2295ZM148.16 37.4046C148.16 36.9534 148.024 36.5849 147.754 36.2991C147.483 36.0133 147.114 35.7953 146.648 35.6449C146.182 35.4794 145.633 35.3591 145.001 35.2839C144.385 35.2087 143.723 35.1561 143.016 35.126C142.324 35.0809 141.602 35.0433 140.85 35.0132C140.113 34.9831 139.391 34.923 138.684 34.8327C138.068 35.1786 137.564 35.5847 137.173 36.0509C136.797 36.5172 136.609 37.0586 136.609 37.6753C136.609 38.0813 136.707 38.4574 136.902 38.8033C137.113 39.1642 137.436 39.4726 137.872 39.7282C138.323 39.9839 138.903 40.1794 139.609 40.3148C140.316 40.4652 141.181 40.5404 142.204 40.5404C143.242 40.5404 144.136 40.4577 144.888 40.2922C145.64 40.1418 146.257 39.9238 146.738 39.638C147.235 39.3673 147.596 39.0364 147.821 38.6454C148.047 38.2694 148.16 37.8558 148.16 37.4046ZM153.709 14.0098V16.0854C153.709 16.7471 153.311 17.1532 152.514 17.3036L150.438 17.6871C150.754 18.4842 150.912 19.3566 150.912 20.3041C150.912 21.4471 150.679 22.4849 150.213 23.4174C149.761 24.3348 149.13 25.1169 148.318 25.7636C147.505 26.4103 146.543 26.9142 145.43 27.2751C144.332 27.621 143.144 27.794 141.865 27.794C141.414 27.794 140.978 27.7714 140.557 27.7263C140.136 27.6812 139.722 27.621 139.316 27.5458C138.594 27.982 138.233 28.4708 138.233 29.0122C138.233 29.4785 138.444 29.8244 138.865 30.05C139.301 30.2605 139.873 30.4109 140.579 30.5012C141.286 30.5914 142.091 30.6516 142.993 30.6817C143.896 30.6967 144.821 30.7418 145.768 30.817C146.716 30.8922 147.641 31.0276 148.543 31.2231C149.446 31.4036 150.25 31.6969 150.957 32.103C151.664 32.509 152.228 33.0655 152.649 33.7724C153.085 34.4642 153.303 35.3591 153.303 36.457C153.303 37.4798 153.048 38.4724 152.536 39.435C152.04 40.3975 151.311 41.2548 150.348 42.0068C149.4 42.7588 148.227 43.3604 146.829 43.8116C145.445 44.2778 143.866 44.511 142.091 44.511C140.346 44.511 138.827 44.338 137.534 43.9921C136.24 43.6612 135.165 43.21 134.308 42.6385C133.451 42.082 132.811 41.4353 132.39 40.6983C131.969 39.9613 131.759 39.1943 131.759 38.3972C131.759 37.3143 132.082 36.4119 132.729 35.69C133.39 34.953 134.293 34.3665 135.436 33.9303C134.819 33.6145 134.33 33.1933 133.969 32.667C133.608 32.1406 133.428 31.4487 133.428 30.5914C133.428 30.2455 133.488 29.8921 133.608 29.5311C133.744 29.1551 133.932 28.7866 134.172 28.4257C134.428 28.0647 134.744 27.7263 135.12 27.4105C135.496 27.0796 135.94 26.7863 136.451 26.5306C135.278 25.899 134.353 25.0567 133.676 24.0039C133.014 22.9511 132.683 21.7178 132.683 20.3041C132.683 19.161 132.909 18.1308 133.36 17.2134C133.827 16.2809 134.466 15.4913 135.278 14.8446C136.105 14.1828 137.075 13.679 138.188 13.333C139.316 12.9871 140.542 12.8141 141.865 12.8141C142.858 12.8141 143.791 12.9194 144.663 13.13C145.535 13.3255 146.332 13.6188 147.054 14.0098H153.709Z" fill="#4F4F4F"/>
            <path d="M162.816 15.7018C163.718 14.8596 164.711 14.1753 165.793 13.6489C166.876 13.1225 168.147 12.8593 169.606 12.8593C170.869 12.8593 171.99 13.0773 172.968 13.5135C173.945 13.9346 174.757 14.5362 175.404 15.3183C176.066 16.0854 176.562 17.0103 176.893 18.0932C177.239 19.161 177.412 20.3417 177.412 21.6351V36.3668H171.84V21.6351C171.84 20.2213 171.516 19.1309 170.869 18.3639C170.223 17.5818 169.238 17.1908 167.914 17.1908C166.952 17.1908 166.049 17.4089 165.207 17.845C164.365 18.2812 163.568 18.8753 162.816 19.6273V36.3668H157.243V2.84263H162.816V15.7018Z" fill="#4F4F4F"/>
            <path d="M190.118 36.7277C188.103 36.7277 186.554 36.1637 185.471 35.0358C184.403 33.8927 183.869 32.321 183.869 30.3207V17.3938H181.5C181.2 17.3938 180.944 17.2961 180.733 17.1005C180.523 16.905 180.418 16.6117 180.418 16.2207V14.0098L184.14 13.4007L185.313 7.08391C185.388 6.78311 185.531 6.54999 185.742 6.38455C185.952 6.21911 186.223 6.13639 186.554 6.13639H189.442V13.4233H195.623V17.3938H189.442V29.9372C189.442 30.6591 189.615 31.2231 189.96 31.6292C190.321 32.0353 190.81 32.2383 191.427 32.2383C191.773 32.2383 192.059 32.2007 192.284 32.1255C192.525 32.0353 192.728 31.945 192.893 31.8548C193.074 31.7646 193.232 31.6818 193.367 31.6066C193.502 31.5164 193.638 31.4713 193.773 31.4713C193.939 31.4713 194.074 31.5164 194.179 31.6066C194.284 31.6818 194.397 31.8022 194.518 31.9676L196.187 34.6748C195.375 35.3516 194.442 35.863 193.39 36.2089C192.337 36.5548 191.246 36.7277 190.118 36.7277Z" fill="#4F4F4F"/>
            <path d="M211.418 26.4855C209.809 26.5607 208.455 26.7036 207.357 26.9142C206.259 27.1097 205.38 27.3654 204.718 27.6812C204.056 27.997 203.582 28.3655 203.297 28.7866C203.011 29.2078 202.868 29.6665 202.868 30.1628C202.868 31.1404 203.154 31.8398 203.725 32.2609C204.312 32.682 205.071 32.8926 206.004 32.8926C207.147 32.8926 208.132 32.6895 208.959 32.2834C209.801 31.8623 210.621 31.2306 211.418 30.3884V26.4855ZM198.649 16.4463C201.311 14.0098 204.515 12.7916 208.26 12.7916C209.613 12.7916 210.824 13.0172 211.892 13.4684C212.96 13.9045 213.862 14.5212 214.599 15.3183C215.336 16.1004 215.893 17.0404 216.269 18.1383C216.66 19.2362 216.855 20.4394 216.855 21.7479V36.3668H214.328C213.802 36.3668 213.396 36.2916 213.11 36.1412C212.824 35.9757 212.599 35.6524 212.433 35.1711L211.937 33.5017C211.351 34.0281 210.779 34.4943 210.223 34.9004C209.666 35.2914 209.087 35.6223 208.485 35.893C207.884 36.1637 207.237 36.3668 206.545 36.5021C205.868 36.6525 205.116 36.7277 204.289 36.7277C203.312 36.7277 202.409 36.5999 201.582 36.3442C200.755 36.0735 200.04 35.6749 199.439 35.1486C198.837 34.6222 198.371 33.9679 198.04 33.1858C197.709 32.4037 197.544 31.4938 197.544 30.4561C197.544 29.8695 197.642 29.2905 197.837 28.719C198.033 28.1324 198.348 27.5759 198.785 27.0495C199.236 26.5231 199.815 26.0268 200.522 25.5605C201.229 25.0943 202.093 24.6882 203.116 24.3423C204.154 23.9964 205.357 23.7181 206.726 23.5076C208.094 23.282 209.659 23.1466 211.418 23.1015V21.7479C211.418 20.1988 211.087 19.0557 210.426 18.3188C209.764 17.5668 208.809 17.1908 207.56 17.1908C206.658 17.1908 205.906 17.2961 205.304 17.5066C204.718 17.7172 204.199 17.9578 203.748 18.2285C203.297 18.4842 202.883 18.7174 202.507 18.9279C202.146 19.1385 201.74 19.2437 201.289 19.2437C200.898 19.2437 200.567 19.146 200.296 18.9505C200.025 18.7399 199.807 18.4993 199.642 18.2285L198.649 16.4463Z" fill="#4F4F4F"/>
            <path d="M245.453 36.3668H239.88V17.3938H229.142V29.9372C229.142 30.6591 229.315 31.2231 229.661 31.6292C230.022 32.0353 230.511 32.2383 231.127 32.2383C231.473 32.2383 231.759 32.2007 231.984 32.1255C232.225 32.0353 232.428 31.945 232.594 31.8548C232.774 31.7646 232.932 31.6818 233.067 31.6066C233.203 31.5164 233.338 31.4713 233.473 31.4713C233.639 31.4713 233.774 31.5164 233.88 31.6066C233.985 31.6818 234.098 31.8022 234.218 31.9676L235.887 34.6748C235.075 35.3516 234.143 35.863 233.09 36.2089C232.037 36.5548 230.947 36.7277 229.819 36.7277C227.803 36.7277 226.254 36.1637 225.171 35.0358C224.104 33.8927 223.57 32.321 223.57 30.3207V17.3938H221.201C220.9 17.3938 220.644 17.2961 220.434 17.1005C220.223 16.905 220.118 16.6117 220.118 16.2207V14.0098L223.84 13.3781L225.013 7.08391C225.089 6.78311 225.232 6.54999 225.442 6.38455C225.653 6.21911 225.923 6.13639 226.254 6.13639H229.142V13.4233H245.453V36.3668ZM246.423 6.38455C246.423 6.86583 246.325 7.32455 246.13 7.76071C245.934 8.18183 245.671 8.55031 245.34 8.86615C245.024 9.18199 244.641 9.43767 244.189 9.63319C243.753 9.81367 243.287 9.90391 242.791 9.90391C242.309 9.90391 241.858 9.81367 241.437 9.63319C241.016 9.43767 240.648 9.18199 240.332 8.86615C240.016 8.55031 239.76 8.18183 239.565 7.76071C239.384 7.32455 239.294 6.86583 239.294 6.38455C239.294 5.88823 239.384 5.42951 239.565 5.00839C239.76 4.57223 240.016 4.19623 240.332 3.88039C240.648 3.54951 241.016 3.29383 241.437 3.11335C241.858 2.91783 242.309 2.82007 242.791 2.82007C243.287 2.82007 243.753 2.91783 244.189 3.11335C244.641 3.29383 245.024 3.54951 245.34 3.88039C245.671 4.19623 245.934 4.57223 246.13 5.00839C246.325 5.42951 246.423 5.88823 246.423 6.38455Z" fill="#4F4F4F"/>
        </g>
    </g>
</svg>
