<svg width="32" height="33" viewBox="0 0 32 33" fill="none" xmlns="http://www.w3.org/2000/svg">
<path d="M11.7573 23.571C10.3431 27.8137 4.68628 27.8137 4.68628 27.8137C4.68628 27.8137 4.68628 22.1568 8.92892 20.7426" stroke="black" stroke-width="2" stroke-linecap="round" stroke-linejoin="round"/>
<path d="M24.4854 13.6716L16.0001 22.1569L10.3433 16.5L18.8285 8.01472C22.0416 4.8017 25.2546 4.83305 26.6248 5.03749C26.8358 5.06894 27.0311 5.16733 27.182 5.31817C27.3328 5.469 27.4312 5.6643 27.4626 5.87527C27.6671 7.24554 27.6984 10.4586 24.4854 13.6716Z" stroke="black" stroke-width="2" stroke-linecap="round" stroke-linejoin="round"/>
<path d="M23.0711 15.0858V23.1569C23.0711 23.2882 23.0452 23.4182 22.9949 23.5396C22.9447 23.6609 22.871 23.7711 22.7782 23.864L18.7355 27.9067C18.6075 28.0347 18.4471 28.1255 18.2716 28.1696C18.096 28.2136 17.9118 28.2091 17.7386 28.1567C17.5653 28.1042 17.4096 28.0058 17.2879 27.8717C17.1663 27.7377 17.0833 27.5732 17.0478 27.3957L16 22.1569" stroke="black" stroke-width="2" stroke-linecap="round" stroke-linejoin="round"/>
<path d="M17.4143 9.42896H9.34326C9.21194 9.42895 9.0819 9.45482 8.96057 9.50508C8.83925 9.55533 8.72901 9.62899 8.63615 9.72185L4.59343 13.7646C4.46544 13.8926 4.37459 14.0529 4.33057 14.2284C4.28654 14.404 4.29099 14.5882 4.34345 14.7615C4.3959 14.9347 4.49438 15.0904 4.6284 15.2121C4.76241 15.3338 4.92694 15.4168 5.10442 15.4523L10.3433 16.5" stroke="black" stroke-width="2" stroke-linecap="round" stroke-linejoin="round"/>
</svg>
